# Blender v2.80 (sub 75) OBJ File: 'KayKit Character Exporter.blend'
# www.blender.org
mtllib character_dogArmRight.mtl
o character_dogArmRight_Cube.026
v -0.091408 0.727740 -0.000000
v -0.234474 0.677212 -0.000000
v -0.331596 0.589901 -0.000000
v -0.406120 0.479888 -0.000000
v -0.452968 0.362842 -0.000000
v -0.468947 0.252091 -0.000000
v -0.233858 0.677212 0.003489
v -0.177754 0.677212 0.045293
v -0.188302 0.694110 0.037657
v -0.214371 0.677212 0.033049
v -0.196964 0.677212 0.042111
v -0.327671 0.589901 0.022250
v -0.272080 0.589901 0.064054
v -0.308334 0.589901 0.051810
v -0.291093 0.589901 0.060872
v -0.399656 0.479888 0.036646
v -0.344868 0.479888 0.078450
v -0.380555 0.479888 0.066206
v -0.363574 0.479888 0.075268
v -0.444908 0.362842 0.045696
v -0.390795 0.362842 0.087500
v -0.426004 0.362842 0.075256
v -0.409242 0.362842 0.084318
v -0.460342 0.252091 0.048783
v -0.406629 0.252091 0.090587
v -0.441555 0.252091 0.078343
v -0.424923 0.252091 0.087404
v -0.401919 0.156901 0.045053
v -0.398201 0.199326 0.088876
v -0.451698 0.198781 0.047054
v -0.397126 0.169439 0.075341
v -0.419367 0.160005 0.045301
v -0.414438 0.171468 0.073400
v -0.424689 0.174717 0.070273
v -0.415933 0.199201 0.085788
v -0.432326 0.199053 0.076756
v -0.396883 0.183174 0.085022
v -0.415132 0.182638 0.081258
v -0.428570 0.183357 0.073969
v -0.446308 0.182671 0.046384
v -0.434954 0.169054 0.045768
v -0.459998 0.198781 -0.000000
v -0.409866 0.156901 -0.000000
v -0.454027 0.182754 -0.000000
v -0.442403 0.169167 -0.000000
v -0.426895 0.160089 -0.000000
v -0.177754 0.677212 -0.045293
v -0.233858 0.677212 -0.003489
v -0.188302 0.694110 -0.037657
v -0.196964 0.677212 -0.042111
v -0.214371 0.677212 -0.033049
v -0.272080 0.589901 -0.064054
v -0.327671 0.589901 -0.022250
v -0.291093 0.589901 -0.060872
v -0.308334 0.589901 -0.051810
v -0.344868 0.479888 -0.078450
v -0.399656 0.479888 -0.036646
v -0.363574 0.479888 -0.075268
v -0.380555 0.479888 -0.066206
v -0.390795 0.362842 -0.087500
v -0.444908 0.362842 -0.045696
v -0.409242 0.362842 -0.084318
v -0.426004 0.362842 -0.075256
v -0.406629 0.252091 -0.090587
v -0.460342 0.252091 -0.048783
v -0.424923 0.252091 -0.087404
v -0.441555 0.252091 -0.078343
v -0.401919 0.156901 -0.045053
v -0.451698 0.198781 -0.047054
v -0.398201 0.199326 -0.088876
v -0.419367 0.160005 -0.045301
v -0.434954 0.169054 -0.045768
v -0.424689 0.174717 -0.070273
v -0.432326 0.199053 -0.076756
v -0.446308 0.182671 -0.046384
v -0.428570 0.183357 -0.073969
v -0.396883 0.183174 -0.085022
v -0.397126 0.169439 -0.075341
v -0.415933 0.199201 -0.085788
v -0.415132 0.182638 -0.081258
v -0.414438 0.171468 -0.073400
v -0.169037 0.677212 0.037765
v -0.177423 0.677212 0.045293
v -0.170161 0.677212 0.041529
v -0.173230 0.677212 0.044285
v -0.247221 0.589901 0.064054
v -0.239055 0.589901 0.056513
v -0.243138 0.589901 0.063044
v -0.240149 0.589901 0.060284
v -0.300751 0.479888 0.078450
v -0.292781 0.479888 0.070881
v -0.296766 0.479888 0.077436
v -0.293849 0.479888 0.074666
v -0.334365 0.362842 0.087500
v -0.326555 0.362842 0.079880
v -0.330460 0.362842 0.086479
v -0.327601 0.362842 0.083690
v -0.345767 0.252091 0.090587
v -0.338074 0.252091 0.082890
v -0.341920 0.252091 0.089555
v -0.339105 0.252091 0.086738
v -0.331857 0.163963 -0.000000
v -0.341015 0.156901 -0.000000
v -0.333703 0.160432 -0.000000
v -0.337055 0.157847 -0.000000
v -0.177423 0.677212 -0.045293
v -0.169037 0.677212 -0.037765
v -0.173230 0.677212 -0.044285
v -0.170161 0.677212 -0.041529
v -0.239055 0.589901 -0.056514
v -0.247221 0.589901 -0.064054
v -0.240149 0.589901 -0.060284
v -0.243138 0.589901 -0.063044
v -0.292781 0.479888 -0.070881
v -0.300751 0.479888 -0.078450
v -0.293849 0.479888 -0.074666
v -0.296766 0.479888 -0.077436
v -0.326555 0.362842 -0.079880
v -0.334365 0.362842 -0.087500
v -0.327601 0.362842 -0.083690
v -0.330460 0.362842 -0.086479
v -0.338074 0.252091 -0.082890
v -0.345766 0.252091 -0.090587
v -0.339105 0.252091 -0.086738
v -0.341920 0.252091 -0.089555
v -0.105598 0.719915 0.025997
v -0.088711 0.726236 0.016182
v -0.096711 0.722828 0.023748
v -0.090530 0.725142 0.020155
v -0.088711 0.726236 -0.016182
v -0.105598 0.719915 -0.025997
v -0.090530 0.725142 -0.020156
v -0.096711 0.722828 -0.023748
v -0.331689 0.199326 0.081066
v -0.339293 0.199326 0.088876
v -0.332708 0.199326 0.084971
v -0.335491 0.199326 0.087829
v -0.330994 0.164110 0.054013
v -0.339617 0.156901 0.045053
v -0.332570 0.160505 0.049533
v -0.335726 0.157867 0.046253
v -0.337691 0.183100 0.085107
v -0.330150 0.183090 0.077154
v -0.333920 0.183095 0.084046
v -0.331160 0.183092 0.081134
v -0.337194 0.169339 0.075456
v -0.329695 0.169327 0.067293
v -0.333445 0.169333 0.074368
v -0.330700 0.169328 0.071380
v -0.330994 0.164110 -0.054013
v -0.339617 0.156901 -0.045053
v -0.332570 0.160505 -0.049533
v -0.335726 0.157867 -0.046253
v -0.339293 0.199326 -0.088876
v -0.331689 0.199326 -0.081066
v -0.335491 0.199326 -0.087829
v -0.332708 0.199326 -0.084971
v -0.337194 0.169339 -0.075456
v -0.329695 0.169327 -0.067293
v -0.333445 0.169333 -0.074368
v -0.330700 0.169328 -0.071380
v -0.337691 0.183100 -0.085107
v -0.330150 0.183090 -0.077154
v -0.333920 0.183095 -0.084046
v -0.331160 0.183092 -0.081134
vt 1.000000 0.583333
vt 1.000000 0.666667
vt 0.980536 0.666667
vt 0.978240 0.583333
vt 1.000000 0.750000
vt 0.985527 0.750000
vt 0.958333 0.666667
vt 0.958333 0.583333
vt 0.958333 0.583333
vt 0.958333 0.666667
vt 1.000000 0.833333
vt 0.996791 0.833333
vt 0.095625 0.750000
vt 0.904375 0.750000
vt 0.882152 0.833333
vt 0.117848 0.833333
vt 0.091327 0.416667
vt 0.089382 0.416667
vt 0.687336 0.416667
vt 0.916374 0.416667
vt 0.908673 0.416667
vt 0.022438 0.500000
vt 0.021760 0.583333
vt 0.000000 0.583333
vt 0.000000 0.500000
vt 0.978546 0.416667
vt 1.000000 0.416667
vt 1.000000 0.416667
vt 0.978546 0.416667
vt 0.019464 0.666667
vt 0.000000 0.666667
vt 0.014474 0.750000
vt 0.000000 0.750000
vt 0.000000 0.416667
vt 0.021454 0.416667
vt 0.021454 0.416667
vt 0.000000 0.416667
vt 0.003210 0.833333
vt 0.000000 0.833333
vt 1.000000 0.916667
vt 0.971242 0.916667
vt 0.951975 0.914721
vt 0.958863 0.912298
vt 0.958333 0.906935
vt 0.958333 0.862459
vt 0.041666 0.862459
vt 0.041666 0.906935
vt 0.041136 0.912298
vt 0.123085 0.914721
vt 0.028758 0.916667
vt 0.000000 0.916667
vt 0.338569 0.916667
vt 0.022063 0.453330
vt 0.000000 0.453330
vt 0.081579 0.583333
vt 0.918421 0.583333
vt 0.914110 0.666667
vt 0.085890 0.666667
vt 1.000000 0.453330
vt 1.000000 0.500000
vt 0.977562 0.500000
vt 0.977937 0.453330
vt 0.080611 0.500000
vt 0.919389 0.500000
vt 0.081939 0.453807
vt 0.918061 0.453807
vt 0.041667 0.833333
vt 0.041667 0.833333
vt 0.958333 0.500000
vt 0.958333 0.453807
vt 0.958333 0.453807
vt 0.958333 0.500000
vt 0.958333 0.833333
vt 0.958333 0.833333
vt 0.958333 0.750000
vt 0.958333 0.750000
vt 0.041667 0.416667
vt 0.041667 0.416667
vt 0.021572 0.416667
vt 0.032059 0.840013
vt 0.041552 0.847412
vt 0.045932 0.856140
vt 0.039364 0.420977
vt 0.022604 0.416667
vt 0.022103 0.438838
vt 0.041667 0.437599
vt 0.041667 0.451570
vt 0.041667 0.453807
vt 0.041667 0.453610
vt 0.041667 0.438997
vt 0.041667 0.439573
vt 0.958333 0.835734
vt 0.958333 0.841529
vt 0.958333 0.833957
vt 0.978428 0.416667
vt 0.958333 0.416667
vt 0.958333 0.416667
vt 0.977396 0.416667
vt 0.960636 0.420977
vt 0.958333 0.451570
vt 0.958333 0.437599
vt 0.977897 0.438838
vt 0.084553 0.439503
vt 0.915447 0.439503
vt 0.958333 0.439573
vt 0.958333 0.438997
vt 0.958333 0.453610
vt 0.041667 0.416667
vt 0.958333 0.416667
vt 0.958333 0.439510
vt 0.041667 0.753358
vt 0.041667 0.833333
vt 0.041667 0.669098
vt 0.041667 0.750467
vt 0.041667 0.833957
vt 0.041667 0.750000
vt 0.041667 0.584998
vt 0.041667 0.666909
vt 0.041667 0.666667
vt 0.041667 0.499755
vt 0.041667 0.583454
vt 0.041667 0.583333
vt 0.041667 0.499988
vt 0.041667 0.500000
vt 0.958333 0.753358
vt 0.958333 0.833333
vt 0.000000 0.416667
vt 0.000861 0.416667
vt 0.000257 0.438845
vt 0.958333 0.750467
vt 0.958333 0.669098
vt 0.958333 0.666909
vt 0.958333 0.584998
vt 0.958333 0.583454
vt 0.958333 0.499755
vt 0.958333 0.499988
vt 0.999743 0.438845
vt 0.999139 0.416667
vt 1.000000 0.416667
vt 0.041667 0.750000
vt 0.041667 0.666667
vt 0.041667 0.583333
vt 0.041667 0.500000
vt 0.041667 0.453807
vt 0.041667 0.439510
vt 0.041667 0.750148
vt 0.041667 0.833758
vt 0.068893 0.749582
vt 0.080034 0.832649
vt 0.041667 0.666744
vt 0.063881 0.666406
vt 0.041667 0.583372
vt 0.061655 0.583194
vt 0.041667 0.499996
vt 0.061150 0.500014
vt 0.931106 0.749582
vt 0.919404 0.832649
vt 0.958333 0.750148
vt 0.958333 0.833758
vt 0.936118 0.666406
vt 0.958333 0.666744
vt 0.938345 0.583194
vt 0.958333 0.583372
vt 0.938850 0.500014
vt 0.958333 0.499996
vt 0.041667 0.438985
vt 0.041667 0.453690
vt 0.063230 0.439574
vt 0.061862 0.453903
vt 0.041355 0.416238
vt 0.064786 0.416696
vt 0.022363 0.416667
vt 0.052338 0.416667
vt 0.958645 0.416239
vt 0.977806 0.416667
vt 0.935330 0.416696
vt 0.951508 0.416667
vt 0.958333 0.438985
vt 0.936769 0.439574
vt 0.958333 0.453690
vt 0.938138 0.453903
vt 0.841463 0.416667
vt 0.021454 0.416667
vt 1.000000 0.416667
vt 0.000000 0.416667
vt 0.022025 0.416667
vn -0.9667 0.2558 -0.0000
vn -0.8858 0.4641 0.0000
vn -0.8299 0.4530 -0.3256
vn -0.9030 0.2489 -0.3503
vn -0.7595 0.6505 0.0000
vn -0.7152 0.6384 -0.2845
vn 0.1179 0.0606 -0.9912
vn 0.1204 0.0302 -0.9923
vn -0.0907 0.0778 -0.9928
vn -0.0876 0.1511 -0.9846
vn -0.5203 0.8540 -0.0000
vn -0.5178 0.8347 -0.1874
vn 0.8449 -0.5203 0.1242
vn 0.8449 -0.5203 -0.1242
vn 0.6604 -0.7474 -0.0728
vn 0.6604 -0.7474 0.0728
vn 0.9492 -0.2940 0.1124
vn 0.8901 -0.4501 0.0718
vn 0.9310 -0.3650 -0.0000
vn 0.8901 -0.4501 -0.0718
vn 0.9492 -0.2940 -0.1124
vn -0.9326 -0.0119 0.3608
vn -0.9030 0.2489 0.3503
vn -0.9999 -0.0113 -0.0000
vn 0.0946 -0.9809 -0.1701
vn 0.1173 -0.9931 -0.0000
vn -0.0999 -0.9950 -0.0000
vn -0.0830 -0.9757 -0.2030
vn -0.8299 0.4530 0.3256
vn -0.7152 0.6384 0.2845
vn 0.0946 -0.9809 0.1701
vn -0.0830 -0.9757 0.2030
vn -0.5178 0.8347 0.1874
vn -0.3187 0.9479 -0.0000
vn -0.3185 0.9474 -0.0311
vn -0.2901 0.7561 -0.5866
vn -0.2901 0.7561 0.5866
vn -0.3185 0.9474 0.0311
vn 0.5283 -0.8491 0.0000
vn 0.5302 -0.8474 0.0280
vn 0.5302 -0.8474 -0.0280
vn -0.9049 -0.2384 0.3525
vn -0.9684 -0.2495 -0.0000
vn 0.9737 -0.1837 0.1346
vn 0.9737 -0.1837 -0.1346
vn 0.9287 -0.3465 -0.1320
vn 0.9287 -0.3465 0.1320
vn -0.9326 -0.0119 -0.3608
vn -0.9049 -0.2384 -0.3525
vn 0.9909 0.0081 0.1342
vn 0.9909 0.0081 -0.1342
vn 0.9871 0.0870 0.1346
vn 0.9871 0.0870 -0.1346
vn 0.1075 0.2155 0.9706
vn 0.2141 0.0795 0.9736
vn -0.0444 0.3172 0.9473
vn 0.1211 -0.0011 -0.9926
vn 0.1329 -0.1145 -0.9845
vn -0.0852 -0.1438 -0.9859
vn -0.0938 -0.0031 -0.9956
vn 0.2141 0.0795 -0.9736
vn 0.1075 0.2155 -0.9706
vn -0.0444 0.3172 -0.9473
vn 0.1136 0.1046 -0.9880
vn -0.0841 0.2451 -0.9658
vn -0.0762 -0.7755 0.6267
vn -0.2831 -0.7389 0.6115
vn -0.3184 -0.9210 0.2245
vn -0.4999 0.6653 0.5545
vn -0.2698 0.4112 0.8707
vn -0.5235 -0.6580 0.5413
vn -0.6170 -0.7419 0.2625
vn -0.8264 -0.4646 0.3181
vn -0.6195 -0.4124 0.6679
vn -0.6624 -0.2062 0.7202
vn -0.0852 -0.1438 0.9859
vn -0.3192 -0.1702 0.9323
vn -0.3064 -0.4113 0.8585
vn -0.0818 -0.4099 0.9084
vn -0.4999 0.6653 -0.5545
vn -0.2698 0.4112 -0.8707
vn -0.3184 -0.9210 -0.2245
vn -0.2831 -0.7389 -0.6115
vn -0.0762 -0.7755 -0.6267
vn -0.6170 -0.7419 -0.2625
vn -0.5235 -0.6580 -0.5413
vn -0.6624 -0.2062 -0.7202
vn -0.6195 -0.4124 -0.6679
vn -0.8264 -0.4646 -0.3181
vn 0.9904 -0.0094 0.1379
vn 0.9904 -0.0094 -0.1379
vn -0.0818 -0.4099 -0.9084
vn -0.3064 -0.4113 -0.8585
vn -0.3192 -0.1702 -0.9323
vn 0.0931 -0.7665 0.6355
vn 0.0931 -0.7665 -0.6355
vn 0.1271 -0.3923 -0.9110
vn -0.5503 0.5634 0.6162
vn -0.6243 0.3887 0.6776
vn -0.2927 0.4041 0.8666
vn -0.0841 0.2451 0.9658
vn -0.6709 0.2106 0.7110
vn -0.3168 0.2621 0.9116
vn -0.0876 0.1511 0.9846
vn -0.6920 -0.0108 0.7218
vn -0.3322 0.1380 0.9331
vn -0.0907 0.0778 0.9928
vn -0.3423 -0.0066 0.9396
vn -0.0938 -0.0031 0.9956
vn -0.5503 0.5634 -0.6162
vn -0.3620 -0.9322 0.0000
vn -0.6521 -0.7582 0.0000
vn -0.8708 -0.4916 -0.0000
vn -0.2927 0.4041 -0.8666
vn -0.6243 0.3887 -0.6776
vn -0.3168 0.2621 -0.9116
vn -0.6710 0.2106 -0.7110
vn -0.3322 0.1380 -0.9331
vn -0.6920 -0.0108 -0.7218
vn -0.3423 -0.0066 -0.9396
vn 0.1136 0.1046 0.9880
vn 0.1179 0.0606 0.9912
vn 0.1204 0.0302 0.9923
vn 0.1211 -0.0011 0.9926
vn 0.1329 -0.1145 0.9845
vn 0.1271 -0.3923 0.9110
vn 0.4517 -0.1242 0.8835
vn 0.4280 -0.1797 0.8857
vn 0.7663 -0.4034 0.5000
vn 0.6479 -0.6424 0.4094
vn 0.4679 -0.0838 0.8798
vn 0.8181 -0.2627 0.5115
vn 0.4784 -0.0444 0.8770
vn 0.8467 -0.1381 0.5138
vn 0.4840 0.0026 0.8750
vn 0.8592 0.0064 0.5117
vn 0.7663 -0.4034 -0.5000
vn 0.6479 -0.6424 -0.4094
vn 0.4517 -0.1242 -0.8835
vn 0.4280 -0.1797 -0.8857
vn 0.8181 -0.2627 -0.5115
vn 0.4679 -0.0838 -0.8798
vn 0.8467 -0.1381 -0.5138
vn 0.4784 -0.0444 -0.8770
vn 0.8592 0.0064 -0.5117
vn 0.4840 0.0026 -0.8750
vn 0.4865 -0.3256 0.8107
vn 0.5028 -0.0593 0.8624
vn 0.8536 -0.1780 0.4896
vn 0.8643 0.0240 0.5023
vn 0.3887 -0.7111 0.5858
vn 0.7459 -0.5535 0.3706
vn 0.3719 -0.9156 0.1529
vn 0.6880 -0.7119 0.1411
vn 0.3887 -0.7111 -0.5858
vn 0.3719 -0.9156 -0.1529
vn 0.7459 -0.5535 -0.3706
vn 0.6880 -0.7119 -0.1411
vn 0.4865 -0.3256 -0.8107
vn 0.8536 -0.1780 -0.4896
vn 0.5028 -0.0593 -0.8624
vn 0.8643 0.0240 -0.5023
vn 0.7867 -0.6173 -0.0000
vn 0.4417 -0.8972 -0.0000
vn 0.2307 0.0507 0.9717
vn 0.5342 -0.6489 0.5418
vn 0.5403 -0.8294 0.1420
vn 0.5403 -0.8294 -0.1420
vn 0.5342 -0.6489 -0.5419
vn 0.2307 0.0507 -0.9717
usemtl Beige
s 1
f 5/1/1 4/2/2 57/3/3 61/4/4
s 2
f 4/2/2 3/5/5 53/6/6 57/3/3
s 3
f 115/7/7 119/8/8 60/9/9 56/10/10
s 4
f 3/5/5 2/11/11 48/12/12 53/6/6
s 5
f 87/13/13 110/14/14 107/15/15 82/16/16
s 6
f 147/17/17 138/18/18 102/19/19 150/20/20 159/21/21
s 7
f 24/22/22 20/23/23 5/24/1 6/25/24
s 8
f 151/26/25 103/27/26 43/28/27 68/29/28
s 9
f 20/23/23 16/30/29 4/31/2 5/24/1
s 10
f 16/30/29 12/32/30 3/33/5 4/31/2
s 11
f 103/34/26 139/35/31 28/36/32 43/37/27
s 12
f 12/32/30 7/38/33 2/39/11 3/33/5
s 13
f 2/11/11 1/40/34 130/41/35 132/42/35 133/43/35 131/44/35 49/45/36 48/12/12
s 14
f 7/38/33 9/46/37 126/47/38 128/48/38 129/49/38 127/50/38 1/51/34 2/39/11
s 15
f 1/40/39 127/52/40 82/16/16 107/15/15 130/41/41
s 16
f 30/53/42 24/22/22 6/25/24 42/54/43
s 17
f 95/55/44 118/56/45 114/57/46 91/58/47
s 18
f 42/59/43 6/60/24 65/61/48 69/62/49
s 19
f 99/63/50 122/64/51 118/56/45 95/55/44
s 20
f 99/63/50 134/65/52 155/66/53 122/64/51
s 21
f 83/67/54 126/47/55 9/46/37 8/68/56
s 22
f 123/69/57 154/70/58 70/71/59 64/72/60
s 23
f 131/44/61 106/73/62 47/74/63 49/45/36
s 24
f 111/75/64 115/7/7 56/10/10 52/76/65
s 25
f 119/8/8 123/69/57 64/72/60 60/9/9
s 26
f 6/60/24 5/1/1 61/4/4 65/61/48
s 27
f 28/36/32 31/77/66 33/78/67 32/79/68
s 28
f 10/80/69 11/81/70 9/46/37
s 29
f 11/81/70 8/82/56 9/46/37
s 30
f 32/79/68 33/78/67 34/83/71 41/84/72
s 31
f 40/85/73 39/86/74 36/87/75 30/53/42
s 32
f 29/88/76 35/89/77 38/90/78 37/91/79
s 33
f 35/89/77 36/87/75 39/86/74 38/90/78
s 34
f 37/91/79 38/90/78 33/78/67 31/77/66
s 35
f 38/90/78 39/86/74 34/83/71 33/78/67
s 36
f 41/84/72 34/83/71 39/86/74 40/85/73
s 37
f 51/92/80 48/93/12 49/45/36
s 38
f 47/74/63 50/94/81 49/45/36
s 39
f 50/94/81 51/92/80 49/45/36
s 40
f 71/95/82 81/96/83 78/97/84 68/29/28
s 41
f 72/98/85 73/99/86 81/96/83 71/95/82
s 42
f 69/62/49 74/100/87 76/101/88 75/102/89
s 43
f 75/102/89 76/101/88 73/99/86 72/98/85
s 44
f 143/103/90 147/17/17 159/21/21 163/104/91
s 45
f 70/71/59 77/105/92 80/106/93 79/107/94
s 46
f 77/105/92 78/97/84 81/96/83 80/106/93
s 47
f 79/107/94 80/106/93 76/101/88 74/100/87
s 48
f 80/106/93 81/96/83 73/99/86 76/101/88
s 49
f 134/65/52 143/103/90 163/104/91 155/66/53
s 50
f 28/36/32 139/35/31 146/108/95 31/77/66
s 51
f 68/29/28 78/97/84 158/109/96 151/26/25
s 52
f 162/110/97 77/105/92 70/71/59 154/70/58
s 53
f 12/32/30 14/111/98 10/112/69 7/38/33
s 54
f 158/109/96 78/97/84 77/105/92 162/110/97
s 55
f 16/30/29 18/113/99 14/111/98 12/32/30
s 56
f 10/112/69 14/111/98 15/114/100 11/115/70
s 57
f 11/115/70 15/114/100 13/116/101 8/68/56
s 58
f 20/23/23 22/117/102 18/113/99 16/30/29
s 59
f 14/111/98 18/113/99 19/118/103 15/114/100
s 60
f 15/114/100 19/118/103 17/119/104 13/116/101
s 61
f 24/22/22 26/120/105 22/117/102 20/23/23
s 62
f 18/113/99 22/117/102 23/121/106 19/118/103
s 63
f 19/118/103 23/121/106 21/122/107 17/119/104
s 64
f 30/53/42 36/87/75 26/120/105 24/22/22
s 65
f 22/117/102 26/120/105 27/123/108 23/121/106
s 66
f 23/121/106 27/123/108 25/124/109 21/122/107
s 67
f 55/125/110 53/6/6 48/12/12 51/126/80
s 68
f 26/120/105 36/87/75 35/89/77 27/123/108
s 69
f 27/123/108 35/89/77 29/88/76 25/124/109
s 70
f 43/37/27 28/36/32 32/79/68 46/127/111
s 71
f 46/127/111 32/79/68 41/84/72 45/128/112
s 72
f 45/128/112 41/84/72 40/85/73 44/129/113
s 73
f 44/129/113 40/85/73 30/53/42 42/54/43
s 74
f 47/74/63 52/76/65 54/130/114 50/94/81
s 75
f 50/94/81 54/130/114 55/125/110 51/126/80
s 76
f 59/131/115 57/3/3 53/6/6 55/125/110
s 77
f 52/76/65 56/10/10 58/132/116 54/130/114
s 78
f 54/130/114 58/132/116 59/131/115 55/125/110
s 79
f 63/133/117 61/4/4 57/3/3 59/131/115
s 80
f 56/10/10 60/9/9 62/134/118 58/132/116
s 81
f 58/132/116 62/134/118 63/133/117 59/131/115
s 82
f 67/135/119 65/61/48 61/4/4 63/133/117
s 83
f 60/9/9 64/72/60 66/136/120 62/134/118
s 84
f 62/134/118 66/136/120 67/135/119 63/133/117
s 85
f 69/62/49 65/61/48 67/135/119 74/100/87
s 86
f 64/72/60 70/71/59 79/107/94 66/136/120
s 87
f 66/136/120 79/107/94 74/100/87 67/135/119
s 88
f 42/59/43 69/62/49 75/102/89 44/137/113
s 89
f 44/137/113 75/102/89 72/98/85 45/138/112
s 90
f 45/138/112 72/98/85 71/95/82 46/139/111
s 91
f 46/139/111 71/95/82 68/29/28 43/28/27
s 92
f 7/38/33 10/80/69 9/46/37
s 93
f 86/140/121 83/67/54 8/68/56 13/116/101
s 94
f 90/141/122 86/140/121 13/116/101 17/119/104
s 95
f 94/142/123 90/141/122 17/119/104 21/122/107
s 96
f 98/143/124 94/142/123 21/122/107 25/124/109
s 97
f 135/144/125 98/143/124 25/124/109 29/88/76
s 98
f 135/144/125 29/88/76 37/91/79 142/145/126
s 99
f 142/145/126 37/91/79 31/77/66 146/108/95
s 100
f 106/73/62 111/75/64 52/76/65 47/74/63
s 101
f 91/58/47 114/57/46 110/14/14 87/13/13
s 102
f 83/67/54 86/140/121 88/146/127 85/147/128
s 103
f 85/147/128 88/146/127 89/148/129 84/149/130
s 104
f 84/149/130 89/148/129 87/13/13 82/16/16
s 105
f 86/140/121 90/141/122 92/150/131 88/146/127
s 106
f 88/146/127 92/150/131 93/151/132 89/148/129
s 107
f 89/148/129 93/151/132 91/58/47 87/13/13
s 108
f 90/141/122 94/142/123 96/152/133 92/150/131
s 109
f 92/150/131 96/152/133 97/153/134 93/151/132
s 110
f 93/151/132 97/153/134 95/55/44 91/58/47
s 111
f 94/142/123 98/143/124 100/154/135 96/152/133
s 112
f 96/152/133 100/154/135 101/155/136 97/153/134
s 113
f 97/153/134 101/155/136 99/63/50 95/55/44
s 114
f 107/15/15 110/14/14 112/156/137 109/157/138
s 115
f 109/157/138 112/156/137 113/158/139 108/159/140
s 116
f 108/159/140 113/158/139 111/75/64 106/73/62
s 117
f 110/14/14 114/57/46 116/160/141 112/156/137
s 118
f 112/156/137 116/160/141 117/161/142 113/158/139
s 119
f 113/158/139 117/161/142 115/7/7 111/75/64
s 120
f 114/57/46 118/56/45 120/162/143 116/160/141
s 121
f 116/160/141 120/162/143 121/163/144 117/161/142
s 122
f 117/161/142 121/163/144 119/8/8 115/7/7
s 123
f 118/56/45 122/64/51 124/164/145 120/162/143
s 124
f 120/162/143 124/164/145 125/165/146 121/163/144
s 125
f 121/163/144 125/165/146 123/69/57 119/8/8
s 126
f 135/144/125 142/145/126 144/166/147 137/167/148
s 127
f 137/167/148 144/166/147 145/168/149 136/169/150
s 128
f 136/169/150 145/168/149 143/103/90 134/65/52
s 129
f 142/145/126 146/108/95 148/170/151 144/166/147
s 130
f 144/166/147 148/170/151 149/171/152 145/168/149
s 131
f 145/168/149 149/171/152 147/17/17 143/103/90
s 132
f 146/108/95 139/35/31 141/172/153 148/170/151
s 133
f 148/170/151 141/172/153 140/173/154 149/171/152
s 134
f 149/171/152 140/173/154 138/18/18 147/17/17
s 135
f 151/26/25 158/109/96 160/174/155 153/175/156
s 136
f 153/175/156 160/174/155 161/176/157 152/177/158
s 137
f 152/177/158 161/176/157 159/21/21 150/20/20
s 138
f 158/109/96 162/110/97 164/178/159 160/174/155
s 139
f 160/174/155 164/178/159 165/179/160 161/176/157
s 140
f 161/176/157 165/179/160 163/104/91 159/21/21
s 141
f 162/110/97 154/70/58 156/180/161 164/178/159
s 142
f 164/178/159 156/180/161 157/181/162 165/179/160
s 143
f 165/179/160 157/181/162 155/66/53 163/104/91
s 144
f 98/143/124 135/144/125 137/167/148 100/154/135
s 145
f 100/154/135 137/167/148 136/169/150 101/155/136
s 146
f 101/155/136 136/169/150 134/65/52 99/63/50
s 147
f 102/19/19 138/18/18 140/173/154 104/182/163
s 148
f 104/182/163 140/173/154 141/183/153 105/184/164
s 149
f 105/185/164 141/186/153 139/35/31 103/34/26
s 150
f 154/70/58 123/69/57 125/165/146 156/180/161
s 151
f 156/180/161 125/165/146 124/164/145 157/181/162
s 152
f 157/181/162 124/164/145 122/64/51 155/66/53
s 153
f 103/27/26 151/26/25 153/175/156 105/184/164
s 154
f 105/184/164 153/175/156 152/177/158 104/182/163
s 155
f 104/182/163 152/177/158 150/20/20 102/19/19
s 156
f 126/47/55 83/67/54 85/147/128 128/48/165
s 157
f 128/48/166 85/147/128 84/149/130 129/49/167
s 158
f 129/49/167 84/149/130 82/16/16 127/52/40
s 159
f 130/41/41 107/15/15 109/157/138 132/42/168
s 160
f 132/42/168 109/157/138 108/159/140 133/43/169
s 161
f 133/43/170 108/159/140 106/73/62 131/44/61
