# Blender v2.80 (sub 75) OBJ File: 'KayKit Character Exporter.blend'
# www.blender.org
mtllib character_bearArmLeft.mtl
o character_bearArmLeft_Cube.024
v 0.091407 0.727740 -0.000000
v 0.234473 0.677212 -0.000000
v 0.331595 0.589901 -0.000000
v 0.406119 0.479888 -0.000000
v 0.452967 0.362842 -0.000000
v 0.468946 0.252091 -0.000000
v 0.233857 0.677212 -0.003489
v 0.177753 0.677212 -0.045293
v 0.188301 0.694110 -0.037657
v 0.214370 0.677212 -0.033049
v 0.196963 0.677212 -0.042111
v 0.327670 0.589901 -0.022251
v 0.272079 0.589901 -0.064054
v 0.308334 0.589901 -0.051810
v 0.291092 0.589901 -0.060872
v 0.399655 0.479888 -0.036646
v 0.344867 0.479888 -0.078450
v 0.380554 0.479888 -0.066206
v 0.363573 0.479888 -0.075268
v 0.444907 0.362842 -0.045696
v 0.390794 0.362842 -0.087500
v 0.426003 0.362842 -0.075256
v 0.409241 0.362842 -0.084318
v 0.460341 0.252091 -0.048783
v 0.406628 0.252091 -0.090587
v 0.441554 0.252091 -0.078343
v 0.424922 0.252091 -0.087404
v 0.401918 0.156901 -0.045053
v 0.398201 0.199326 -0.088876
v 0.451697 0.198781 -0.047054
v 0.397125 0.169439 -0.075341
v 0.419366 0.160005 -0.045301
v 0.414437 0.171468 -0.073400
v 0.424688 0.174717 -0.070273
v 0.415932 0.199201 -0.085788
v 0.432325 0.199053 -0.076756
v 0.396882 0.183174 -0.085022
v 0.415132 0.182638 -0.081258
v 0.428569 0.183357 -0.073969
v 0.446307 0.182671 -0.046384
v 0.434953 0.169054 -0.045768
v 0.459997 0.198781 -0.000000
v 0.409865 0.156901 -0.000000
v 0.454026 0.182754 -0.000000
v 0.442402 0.169167 -0.000000
v 0.426894 0.160089 -0.000000
v 0.177753 0.677212 0.045293
v 0.233858 0.677212 0.003489
v 0.188301 0.694110 0.037657
v 0.196963 0.677212 0.042111
v 0.214370 0.677212 0.033049
v 0.272079 0.589901 0.064054
v 0.327670 0.589901 0.022250
v 0.291092 0.589901 0.060872
v 0.308333 0.589901 0.051810
v 0.344867 0.479888 0.078450
v 0.399655 0.479888 0.036646
v 0.363573 0.479888 0.075268
v 0.380554 0.479888 0.066206
v 0.390794 0.362842 0.087500
v 0.444907 0.362842 0.045696
v 0.409241 0.362842 0.084318
v 0.426003 0.362842 0.075256
v 0.406628 0.252091 0.090587
v 0.460341 0.252091 0.048783
v 0.424922 0.252091 0.087404
v 0.441554 0.252091 0.078343
v 0.401918 0.156901 0.045052
v 0.451697 0.198781 0.047054
v 0.398201 0.199326 0.088876
v 0.419366 0.160005 0.045301
v 0.434953 0.169054 0.045768
v 0.424688 0.174717 0.070273
v 0.432325 0.199053 0.076756
v 0.446307 0.182671 0.046384
v 0.428569 0.183357 0.073969
v 0.396882 0.183174 0.085022
v 0.397125 0.169439 0.075341
v 0.415932 0.199201 0.085788
v 0.415131 0.182638 0.081258
v 0.414437 0.171468 0.073400
v 0.105597 0.719915 -0.025997
v 0.088710 0.726236 -0.016182
v 0.096710 0.722828 -0.023748
v 0.090529 0.725142 -0.020156
v 0.177422 0.677212 -0.045293
v 0.169036 0.677212 -0.037765
v 0.173229 0.677212 -0.044285
v 0.170160 0.677212 -0.041529
v 0.247220 0.589901 -0.064054
v 0.239054 0.589901 -0.056513
v 0.243137 0.589901 -0.063044
v 0.240148 0.589901 -0.060284
v 0.300750 0.479888 -0.078450
v 0.292780 0.479888 -0.070881
v 0.296765 0.479888 -0.077436
v 0.293848 0.479888 -0.074666
v 0.334365 0.362842 -0.087500
v 0.326554 0.362842 -0.079880
v 0.330459 0.362842 -0.086479
v 0.327600 0.362842 -0.083690
v 0.345766 0.252091 -0.090587
v 0.338073 0.252091 -0.082890
v 0.341920 0.252091 -0.089555
v 0.339104 0.252091 -0.086738
v 0.331857 0.163963 -0.000000
v 0.341014 0.156901 -0.000000
v 0.333703 0.160432 -0.000000
v 0.337054 0.157847 -0.000000
v 0.088710 0.726236 0.016182
v 0.105597 0.719915 0.025997
v 0.090529 0.725142 0.020155
v 0.096710 0.722828 0.023748
v 0.169036 0.677212 0.037765
v 0.177422 0.677212 0.045293
v 0.170160 0.677212 0.041529
v 0.173229 0.677212 0.044285
v 0.239054 0.589901 0.056513
v 0.247220 0.589901 0.064054
v 0.240148 0.589901 0.060284
v 0.243137 0.589901 0.063044
v 0.292780 0.479888 0.070881
v 0.300750 0.479888 0.078450
v 0.293848 0.479888 0.074666
v 0.296765 0.479888 0.077436
v 0.326554 0.362842 0.079880
v 0.334365 0.362842 0.087500
v 0.327600 0.362842 0.083690
v 0.330459 0.362842 0.086479
v 0.338073 0.252091 0.082890
v 0.345766 0.252091 0.090587
v 0.339104 0.252091 0.086738
v 0.341919 0.252091 0.089555
v 0.331688 0.199326 -0.081066
v 0.339292 0.199326 -0.088876
v 0.332707 0.199326 -0.084971
v 0.335490 0.199326 -0.087829
v 0.330993 0.164110 -0.054013
v 0.339616 0.156901 -0.045053
v 0.332569 0.160505 -0.049533
v 0.335725 0.157867 -0.046253
v 0.337690 0.183100 -0.085107
v 0.330149 0.183090 -0.077154
v 0.333919 0.183095 -0.084046
v 0.331159 0.183092 -0.081134
v 0.337193 0.169339 -0.075456
v 0.329694 0.169327 -0.067293
v 0.333444 0.169333 -0.074368
v 0.330699 0.169328 -0.071380
v 0.330993 0.164110 0.054013
v 0.339616 0.156901 0.045052
v 0.332569 0.160505 0.049533
v 0.335725 0.157867 0.046253
v 0.339292 0.199326 0.088876
v 0.331688 0.199326 0.081066
v 0.335490 0.199326 0.087829
v 0.332707 0.199326 0.084971
v 0.337193 0.169339 0.075456
v 0.329694 0.169327 0.067293
v 0.333444 0.169333 0.074368
v 0.330699 0.169328 0.071380
v 0.337690 0.183100 0.085107
v 0.330149 0.183090 0.077154
v 0.333919 0.183095 0.084046
v 0.331159 0.183092 0.081134
vt 0.478547 0.416667
vt 0.500000 0.416667
vt 0.500000 0.416667
vt 0.478546 0.416667
vt 0.500000 0.500000
vt 0.500000 0.583333
vt 0.478240 0.583333
vt 0.477562 0.500000
vt 0.500000 0.666667
vt 0.480537 0.666667
vt 0.500000 0.750000
vt 0.485527 0.750000
vt 0.458333 0.666667
vt 0.458333 0.583333
vt 0.458333 0.583333
vt 0.458333 0.666667
vt 0.458334 0.906935
vt 0.458333 0.833333
vt 0.458333 0.833333
vt 0.458333 0.862459
vt 0.500000 0.833333
vt 0.496791 0.833333
vt 0.522438 0.500000
vt 0.521760 0.583333
vt 0.519464 0.666667
vt 0.514474 0.750000
vt 0.537646 0.666667
vt 0.462354 0.666667
vt 0.463239 0.750000
vt 0.536761 0.750000
vt 0.465259 0.833333
vt 0.534741 0.833333
vt 0.500000 0.453330
vt 0.477937 0.453330
vt 0.538126 0.500000
vt 0.461874 0.500000
vt 0.461962 0.583333
vt 0.538038 0.583333
vt 0.538006 0.453807
vt 0.461995 0.453807
vt 0.522063 0.453330
vt 0.458333 0.750000
vt 0.458333 0.750000
vt 0.500000 0.916667
vt 0.471242 0.916667
vt 0.464598 0.914721
vt 0.458864 0.912298
vt 0.458333 0.500000
vt 0.458333 0.500000
vt 0.458333 0.453807
vt 0.458333 0.453807
vt 0.537768 0.439503
vt 0.462232 0.439503
vt 0.541667 0.833333
vt 0.541667 0.906935
vt 0.541667 0.862459
vt 0.541667 0.833333
vt 0.503210 0.833333
vt 0.521454 0.416667
vt 0.541667 0.416667
vt 0.541667 0.416667
vt 0.521572 0.416667
vt 0.532059 0.840013
vt 0.541552 0.847412
vt 0.545932 0.856140
vt 0.539364 0.420977
vt 0.522604 0.416667
vt 0.522103 0.438838
vt 0.541667 0.437599
vt 0.541667 0.451570
vt 0.541667 0.453807
vt 0.541667 0.453610
vt 0.541667 0.438997
vt 0.541667 0.439573
vt 0.458333 0.835734
vt 0.458333 0.841529
vt 0.458333 0.833957
vt 0.478428 0.416667
vt 0.458333 0.416667
vt 0.458333 0.416667
vt 0.477396 0.416667
vt 0.460636 0.420977
vt 0.458333 0.451570
vt 0.458333 0.437599
vt 0.477897 0.438838
vt 0.458333 0.439510
vt 0.458333 0.439573
vt 0.458333 0.438997
vt 0.458333 0.453610
vt 0.458333 0.416667
vt 0.537152 0.416667
vt 0.462848 0.416667
vt 0.541667 0.753358
vt 0.541667 0.833333
vt 0.541667 0.416667
vt 0.521454 0.416667
vt 0.541667 0.669098
vt 0.541667 0.750467
vt 0.541667 0.833957
vt 0.541667 0.750000
vt 0.541667 0.584998
vt 0.541667 0.666909
vt 0.541667 0.666667
vt 0.541667 0.499755
vt 0.541667 0.583454
vt 0.541667 0.583333
vt 0.541667 0.499988
vt 0.541667 0.500000
vt 0.458333 0.753358
vt 0.458333 0.833333
vt 0.500000 0.416667
vt 0.500000 0.416667
vt 0.500000 0.438845
vt 0.458333 0.750467
vt 0.458333 0.669098
vt 0.458333 0.666909
vt 0.458333 0.584998
vt 0.458333 0.583454
vt 0.458333 0.499755
vt 0.458333 0.499988
vt 0.528394 0.416667
vt 0.500000 0.416667
vt 0.471606 0.416667
vt 0.541667 0.583333
vt 0.541667 0.666667
vt 0.541667 0.500000
vt 0.541667 0.453807
vt 0.541667 0.439510
vt 0.541667 0.750000
vt 0.541137 0.912298
vt 0.535402 0.914721
vt 0.528758 0.916667
vt 0.541667 0.833758
vt 0.538153 0.832650
vt 0.541667 0.750148
vt 0.539192 0.749582
vt 0.541667 0.666744
vt 0.539647 0.666406
vt 0.541667 0.583372
vt 0.539850 0.583194
vt 0.541667 0.499996
vt 0.539896 0.500014
vt 0.461847 0.832650
vt 0.458333 0.833758
vt 0.460809 0.749582
vt 0.458333 0.750148
vt 0.460353 0.666406
vt 0.458333 0.666744
vt 0.460151 0.583194
vt 0.458333 0.583372
vt 0.460105 0.500014
vt 0.458333 0.499996
vt 0.541667 0.438985
vt 0.541667 0.453690
vt 0.539706 0.439574
vt 0.539831 0.453902
vt 0.541355 0.416239
vt 0.539372 0.416696
vt 0.522194 0.416667
vt 0.524864 0.416667
vt 0.458645 0.416238
vt 0.477806 0.416667
vt 0.460628 0.416696
vt 0.475136 0.416667
vt 0.458333 0.438985
vt 0.460294 0.439574
vt 0.458333 0.453690
vt 0.460169 0.453902
vt 0.500000 0.416667
vt 0.500000 0.416667
vn -0.0946 -0.9809 0.1701
vn -0.1173 -0.9931 0.0000
vn 0.0999 -0.9950 0.0000
vn 0.0830 -0.9757 0.2030
vn 0.9999 -0.0113 0.0000
vn 0.9667 0.2558 0.0000
vn 0.9030 0.2489 0.3503
vn 0.9326 -0.0119 0.3608
vn 0.8858 0.4641 0.0000
vn 0.8299 0.4530 0.3256
vn 0.7595 0.6505 0.0000
vn 0.7152 0.6384 0.2845
vn -0.1179 0.0606 0.9912
vn -0.1204 0.0302 0.9923
vn 0.0907 0.0778 0.9928
vn 0.0876 0.1511 0.9846
vn -0.2141 0.0795 0.9736
vn -0.1075 0.2155 0.9706
vn 0.0444 0.3172 0.9473
vn 0.2901 0.7561 0.5866
vn 0.5203 0.8540 0.0000
vn 0.5178 0.8347 0.1874
vn 0.9326 -0.0119 -0.3608
vn 0.9030 0.2489 -0.3503
vn 0.8299 0.4530 -0.3256
vn 0.7152 0.6384 -0.2845
vn -0.9287 -0.3465 -0.1320
vn -0.9287 -0.3465 0.1320
vn -0.8449 -0.5203 0.1242
vn -0.8449 -0.5203 -0.1242
vn -0.6604 -0.7474 0.0728
vn -0.6604 -0.7474 -0.0728
vn 0.9684 -0.2495 0.0000
vn 0.9049 -0.2384 0.3525
vn -0.9909 0.0081 -0.1342
vn -0.9909 0.0081 0.1342
vn -0.9737 -0.1837 0.1346
vn -0.9737 -0.1837 -0.1346
vn -0.9871 0.0870 -0.1346
vn -0.9871 0.0870 0.1346
vn 0.9049 -0.2384 -0.3525
vn -0.1136 0.1046 0.9880
vn 0.0841 0.2451 0.9658
vn 0.3187 0.9479 -0.0000
vn 0.3185 0.9474 0.0311
vn -0.1211 -0.0011 0.9926
vn 0.0938 -0.0031 0.9956
vn -0.1329 -0.1145 0.9845
vn 0.0852 -0.1438 0.9859
vn -0.9904 -0.0094 -0.1379
vn -0.9904 -0.0094 0.1379
vn -0.1075 0.2155 -0.9706
vn -0.2141 0.0795 -0.9736
vn 0.2901 0.7561 -0.5866
vn 0.0444 0.3172 -0.9473
vn 0.5178 0.8347 -0.1874
vn 0.0830 -0.9757 -0.2030
vn 0.0762 -0.7755 -0.6267
vn 0.2831 -0.7389 -0.6115
vn 0.3184 -0.9210 -0.2245
vn 0.4999 0.6653 -0.5545
vn 0.2698 0.4112 -0.8707
vn 0.5235 -0.6580 -0.5413
vn 0.6170 -0.7419 -0.2625
vn 0.8264 -0.4646 -0.3181
vn 0.6195 -0.4124 -0.6679
vn 0.6624 -0.2062 -0.7202
vn 0.0852 -0.1438 -0.9859
vn 0.3192 -0.1702 -0.9323
vn 0.3064 -0.4113 -0.8585
vn 0.0818 -0.4099 -0.9084
vn 0.4999 0.6653 0.5545
vn 0.2698 0.4112 0.8707
vn 0.3184 -0.9210 0.2245
vn 0.2831 -0.7389 0.6115
vn 0.0762 -0.7755 0.6267
vn 0.6170 -0.7419 0.2625
vn 0.5235 -0.6580 0.5413
vn 0.6624 -0.2062 0.7202
vn 0.6195 -0.4124 0.6679
vn 0.8264 -0.4646 0.3181
vn -0.1271 -0.3923 0.9110
vn 0.0818 -0.4099 0.9084
vn 0.3064 -0.4113 0.8585
vn 0.3192 -0.1702 0.9323
vn -0.0931 -0.7665 0.6355
vn -0.9492 -0.2940 -0.1124
vn -0.9492 -0.2940 0.1124
vn 0.5503 0.5634 -0.6162
vn -0.0931 -0.7665 -0.6355
vn -0.0946 -0.9809 -0.1701
vn 0.6243 0.3887 -0.6776
vn 0.2927 0.4041 -0.8666
vn 0.0841 0.2451 -0.9658
vn 0.6709 0.2106 -0.7110
vn 0.3168 0.2621 -0.9116
vn 0.0876 0.1511 -0.9846
vn 0.6920 -0.0108 -0.7218
vn 0.3322 0.1380 -0.9331
vn 0.0907 0.0778 -0.9928
vn 0.3423 -0.0066 -0.9396
vn 0.0938 -0.0031 -0.9956
vn 0.5503 0.5634 0.6162
vn 0.3620 -0.9322 0.0000
vn 0.6521 -0.7582 0.0000
vn 0.8708 -0.4916 0.0000
vn 0.2927 0.4041 0.8666
vn 0.6243 0.3887 0.6776
vn 0.3168 0.2621 0.9116
vn 0.6710 0.2106 0.7110
vn 0.3322 0.1380 0.9331
vn 0.6920 -0.0108 0.7218
vn 0.3423 -0.0066 0.9396
vn -0.8901 -0.4501 -0.0718
vn -0.9310 -0.3650 0.0000
vn -0.8901 -0.4501 0.0718
vn -0.1204 0.0302 -0.9923
vn -0.1179 0.0606 -0.9912
vn -0.1211 -0.0011 -0.9926
vn -0.1329 -0.1145 -0.9845
vn -0.1271 -0.3923 -0.9110
vn -0.1136 0.1046 -0.9880
vn 0.3185 0.9474 -0.0311
vn -0.4280 -0.1797 -0.8857
vn -0.2307 0.0507 -0.9717
vn -0.5342 -0.6489 -0.5418
vn -0.6479 -0.6424 -0.4094
vn -0.5403 -0.8294 -0.1420
vn -0.5302 -0.8474 -0.0280
vn -0.4517 -0.1242 -0.8835
vn -0.7663 -0.4034 -0.5000
vn -0.4679 -0.0838 -0.8798
vn -0.8181 -0.2627 -0.5115
vn -0.4784 -0.0444 -0.8770
vn -0.8467 -0.1381 -0.5138
vn -0.4840 0.0026 -0.8750
vn -0.8592 0.0064 -0.5117
vn -0.5302 -0.8474 0.0280
vn -0.6479 -0.6424 0.4094
vn -0.5403 -0.8294 0.1420
vn -0.4280 -0.1797 0.8857
vn -0.5342 -0.6489 0.5419
vn -0.2307 0.0507 0.9717
vn -0.7663 -0.4034 0.5000
vn -0.4517 -0.1242 0.8835
vn -0.8181 -0.2627 0.5115
vn -0.4679 -0.0838 0.8798
vn -0.8467 -0.1381 0.5138
vn -0.4784 -0.0444 0.8770
vn -0.8592 0.0064 0.5117
vn -0.4840 0.0026 0.8750
vn -0.4865 -0.3256 -0.8107
vn -0.5028 -0.0593 -0.8624
vn -0.8536 -0.1780 -0.4896
vn -0.8643 0.0240 -0.5023
vn -0.3887 -0.7111 -0.5858
vn -0.7459 -0.5535 -0.3706
vn -0.3719 -0.9156 -0.1529
vn -0.6880 -0.7119 -0.1411
vn -0.3887 -0.7111 0.5858
vn -0.3719 -0.9156 0.1529
vn -0.7458 -0.5535 0.3706
vn -0.6880 -0.7119 0.1411
vn -0.4865 -0.3256 0.8107
vn -0.8536 -0.1780 0.4896
vn -0.5028 -0.0593 0.8624
vn -0.8643 0.0240 0.5023
vn -0.4417 -0.8972 -0.0000
vn -0.7867 -0.6173 0.0000
vn -0.5283 -0.8491 0.0000
usemtl BrownDark
s 1
f 151/1/1 107/2/2 43/3/3 68/4/4
s 2
f 6/5/5 5/6/6 61/7/7 65/8/8
s 3
f 5/6/6 4/9/9 57/10/10 61/7/7
s 4
f 4/9/9 3/11/11 53/12/12 57/10/10
s 5
f 123/13/13 127/14/14 60/15/15 56/16/16
s 6
f 111/17/17 115/18/18 47/19/19 49/20/20
s 7
f 3/11/11 2/21/21 48/22/22 53/12/12
s 8
f 24/23/23 20/24/24 5/6/6 6/5/5
s 9
f 20/24/24 16/25/25 4/9/9 5/6/6
s 10
f 16/25/25 12/26/26 3/11/11 4/9/9
s 11
f 95/27/27 122/28/28 118/29/29 91/30/30
s 12
f 91/30/30 118/29/29 114/31/31 87/32/32
s 13
f 42/33/33 6/5/5 65/8/8 69/34/34
s 14
f 103/35/35 130/36/36 126/37/37 99/38/38
s 15
f 103/35/35 134/39/39 155/40/40 130/36/36
s 16
f 99/38/38 126/37/37 122/28/28 95/27/27
s 17
f 30/41/41 24/23/23 6/5/5 42/33/33
s 18
f 119/42/42 123/13/13 56/16/16 52/43/43
s 19
f 115/18/18 119/42/42 52/43/43 47/19/19
s 20
f 2/21/21 1/44/44 110/45/45 112/46/45 113/47/45 111/17/45 49/20/20 48/22/22
s 21
f 127/14/14 131/48/46 64/49/47 60/15/15
s 22
f 131/48/46 154/50/48 70/51/49 64/49/47
s 23
f 134/39/39 143/52/50 163/53/51 155/40/40
s 24
f 86/54/52 82/55/53 9/56/54 8/57/55
s 25
f 12/26/26 7/58/56 2/21/21 3/11/11
s 26
f 28/59/57 31/60/58 33/61/59 32/62/60
s 27
f 10/63/61 11/64/62 9/56/54
s 28
f 11/64/62 8/65/55 9/56/54
s 29
f 32/62/60 33/61/59 34/66/63 41/67/64
s 30
f 40/68/65 39/69/66 36/70/67 30/41/41
s 31
f 29/71/68 35/72/69 38/73/70 37/74/71
s 32
f 35/72/69 36/70/67 39/69/66 38/73/70
s 33
f 37/74/71 38/73/70 33/61/59 31/60/58
s 34
f 38/73/70 39/69/66 34/66/63 33/61/59
s 35
f 41/67/64 34/66/63 39/69/66 40/68/65
s 36
f 51/75/72 48/76/22 49/20/20
s 37
f 47/19/19 50/77/73 49/20/20
s 38
f 50/77/73 51/75/72 49/20/20
s 39
f 71/78/74 81/79/75 78/80/76 68/4/4
s 40
f 72/81/77 73/82/78 81/79/75 71/78/74
s 41
f 69/34/34 74/83/79 76/84/80 75/85/81
s 42
f 75/85/81 76/84/80 73/82/78 72/81/77
s 43
f 70/51/49 154/50/48 162/86/82 77/87/83
s 44
f 70/51/49 77/87/83 80/88/84 79/89/85
s 45
f 77/87/83 78/80/76 81/79/75 80/88/84
s 46
f 79/89/85 80/88/84 76/84/80 74/83/79
s 47
f 80/88/84 81/79/75 73/82/78 76/84/80
s 48
f 77/87/83 162/86/82 158/90/86 78/80/76
s 49
f 143/52/50 147/91/87 159/92/88 163/53/51
s 50
f 12/26/26 14/93/89 10/94/61 7/58/56
s 51
f 151/1/1 68/4/4 78/80/76 158/90/86
s 52
f 146/95/90 31/60/58 28/59/57 139/96/91
s 53
f 16/25/25 18/97/92 14/93/89 12/26/26
s 54
f 10/94/61 14/93/89 15/98/93 11/99/62
s 55
f 11/99/62 15/98/93 13/100/94 8/57/55
s 56
f 20/24/24 22/101/95 18/97/92 16/25/25
s 57
f 14/93/89 18/97/92 19/102/96 15/98/93
s 58
f 15/98/93 19/102/96 17/103/97 13/100/94
s 59
f 24/23/23 26/104/98 22/101/95 20/24/24
s 60
f 18/97/92 22/101/95 23/105/99 19/102/96
s 61
f 19/102/96 23/105/99 21/106/100 17/103/97
s 62
f 30/41/41 36/70/67 26/104/98 24/23/23
s 63
f 22/101/95 26/104/98 27/107/101 23/105/99
s 64
f 23/105/99 27/107/101 25/108/102 21/106/100
s 65
f 55/109/103 53/12/12 48/22/22 51/110/72
s 66
f 26/104/98 36/70/67 35/72/69 27/107/101
s 67
f 27/107/101 35/72/69 29/71/68 25/108/102
s 68
f 43/3/3 28/59/57 32/62/60 46/111/104
s 69
f 46/111/104 32/62/60 41/67/64 45/112/105
s 70
f 45/112/105 41/67/64 40/68/65 44/113/106
s 71
f 44/113/106 40/68/65 30/41/41 42/33/33
s 72
f 47/19/19 52/43/43 54/114/107 50/77/73
s 73
f 50/77/73 54/114/107 55/109/103 51/110/72
s 74
f 59/115/108 57/10/10 53/12/12 55/109/103
s 75
f 52/43/43 56/16/16 58/116/109 54/114/107
s 76
f 54/114/107 58/116/109 59/115/108 55/109/103
s 77
f 63/117/110 61/7/7 57/10/10 59/115/108
s 78
f 56/16/16 60/15/15 62/118/111 58/116/109
s 79
f 58/116/109 62/118/111 63/117/110 59/115/108
s 80
f 67/119/112 65/8/8 61/7/7 63/117/110
s 81
f 60/15/15 64/49/47 66/120/113 62/118/111
s 82
f 62/118/111 66/120/113 67/119/112 63/117/110
s 83
f 69/34/34 65/8/8 67/119/112 74/83/79
s 84
f 64/49/47 70/51/49 79/89/85 66/120/113
s 85
f 66/120/113 79/89/85 74/83/79 67/119/112
s 86
f 68/4/4 43/3/3 46/111/104 71/78/74
s 87
f 71/78/74 46/111/104 45/112/105 72/81/77
s 88
f 72/81/77 45/112/105 44/113/106 75/85/81
s 89
f 75/85/81 44/113/106 42/33/33 69/34/34
s 90
f 147/91/87 138/121/114 106/122/115 150/123/116 159/92/88
s 91
f 7/58/56 10/63/61 9/56/54
s 92
f 98/124/117 94/125/118 17/103/97 21/106/100
s 93
f 102/126/119 98/124/117 21/106/100 25/108/102
s 94
f 135/127/120 102/126/119 25/108/102 29/71/68
s 95
f 37/74/71 142/128/121 135/127/120 29/71/68
s 96
f 31/60/58 146/95/90 142/128/121 37/74/71
s 97
f 107/2/2 139/96/91 28/59/57 43/3/3
s 98
f 94/125/118 90/129/122 13/100/94 17/103/97
s 99
f 90/129/122 86/54/52 8/57/55 13/100/94
s 100
f 7/58/56 9/56/54 82/55/123 84/130/123 85/131/123 83/132/123 1/44/44 2/21/21
s 101
f 82/55/53 86/54/52 88/133/124 84/130/125
s 102
f 84/130/126 88/133/124 89/134/127 85/131/128
s 103
f 85/131/128 89/134/127 87/32/32 83/132/129
s 104
f 86/54/52 90/129/122 92/135/130 88/133/124
s 105
f 88/133/124 92/135/130 93/136/131 89/134/127
s 106
f 89/134/127 93/136/131 91/30/30 87/32/32
s 107
f 90/129/122 94/125/118 96/137/132 92/135/130
s 108
f 92/135/130 96/137/132 97/138/133 93/136/131
s 109
f 93/136/131 97/138/133 95/27/27 91/30/30
s 110
f 94/125/118 98/124/117 100/139/134 96/137/132
s 111
f 96/137/132 100/139/134 101/140/135 97/138/133
s 112
f 97/138/133 101/140/135 99/38/38 95/27/27
s 113
f 98/124/117 102/126/119 104/141/136 100/139/134
s 114
f 100/139/134 104/141/136 105/142/137 101/140/135
s 115
f 101/140/135 105/142/137 103/35/35 99/38/38
s 116
f 110/45/138 114/31/31 116/143/139 112/46/140
s 117
f 112/46/140 116/143/139 117/144/141 113/47/142
s 118
f 113/47/143 117/144/141 115/18/18 111/17/17
s 119
f 114/31/31 118/29/29 120/145/144 116/143/139
s 120
f 116/143/139 120/145/144 121/146/145 117/144/141
s 121
f 117/144/141 121/146/145 119/42/42 115/18/18
s 122
f 118/29/29 122/28/28 124/147/146 120/145/144
s 123
f 120/145/144 124/147/146 125/148/147 121/146/145
s 124
f 121/146/145 125/148/147 123/13/13 119/42/42
s 125
f 122/28/28 126/37/37 128/149/148 124/147/146
s 126
f 124/147/146 128/149/148 129/150/149 125/148/147
s 127
f 125/148/147 129/150/149 127/14/14 123/13/13
s 128
f 126/37/37 130/36/36 132/151/150 128/149/148
s 129
f 128/149/148 132/151/150 133/152/151 129/150/149
s 130
f 129/150/149 133/152/151 131/48/46 127/14/14
s 131
f 135/127/120 142/128/121 144/153/152 137/154/153
s 132
f 137/154/153 144/153/152 145/155/154 136/156/155
s 133
f 136/156/155 145/155/154 143/52/50 134/39/39
s 134
f 142/128/121 146/95/90 148/157/156 144/153/152
s 135
f 144/153/152 148/157/156 149/158/157 145/155/154
s 136
f 145/155/154 149/158/157 147/91/87 143/52/50
s 137
f 146/95/90 139/96/91 141/159/158 148/157/156
s 138
f 148/157/156 141/159/158 140/160/159 149/158/157
s 139
f 149/158/157 140/160/159 138/121/114 147/91/87
s 140
f 151/1/1 158/90/86 160/161/160 153/162/161
s 141
f 153/162/161 160/161/160 161/163/162 152/164/163
s 142
f 152/164/163 161/163/162 159/92/88 150/123/116
s 143
f 158/90/86 162/86/82 164/165/164 160/161/160
s 144
f 160/161/160 164/165/164 165/166/165 161/163/162
s 145
f 161/163/162 165/166/165 163/53/51 159/92/88
s 146
f 162/86/82 154/50/48 156/167/166 164/165/164
s 147
f 164/165/164 156/167/166 157/168/167 165/166/165
s 148
f 165/166/165 157/168/167 155/40/40 163/53/51
s 149
f 134/39/39 103/35/35 105/142/137 136/156/155
s 150
f 136/156/155 105/142/137 104/141/136 137/154/153
s 151
f 137/154/153 104/141/136 102/126/119 135/127/120
s 152
f 139/96/91 107/2/2 109/169/168 141/159/158
s 153
f 141/159/158 109/169/168 108/170/169 140/160/159
s 154
f 140/160/159 108/170/169 106/122/115 138/121/114
s 155
f 154/50/48 131/48/46 133/152/151 156/167/166
s 156
f 156/167/166 133/152/151 132/151/150 157/168/167
s 157
f 157/168/167 132/151/150 130/36/36 155/40/40
s 158
f 107/2/2 151/1/1 153/162/161 109/169/168
s 159
f 109/169/168 153/162/161 152/164/163 108/170/169
s 160
f 108/170/169 152/164/163 150/123/116 106/122/115
s 161
f 87/32/32 114/31/31 110/45/138 1/44/170 83/132/129
